<svg xmlns="http://www.w3.org/2000/svg" xmlns:xlink="http://www.w3.org/1999/xlink" width="2000" zoomAndPan="magnify" viewBox="0 0 1500 1499.999933" height="2000" preserveAspectRatio="xMidYMid meet" version="1.0"><defs><clipPath id="2509c6b05e"><path d="M 831 389 L 955.785156 389 L 955.785156 523 L 831 523 Z M 831 389 " clip-rule="nonzero"/></clipPath><clipPath id="f0dfb23e28"><path d="M 673 441 L 870 441 L 870 599.863281 L 673 599.863281 Z M 673 441 " clip-rule="nonzero"/></clipPath><clipPath id="05052fa10d"><path d="M 371 271 L 649 271 L 649 549 L 371 549 Z M 371 271 " clip-rule="nonzero"/></clipPath><clipPath id="fc27e723c5"><path d="M 463.617188 271.460938 L 648.253906 363.816406 L 555.902344 548.453125 L 371.265625 456.097656 Z M 463.617188 271.460938 " clip-rule="nonzero"/></clipPath><clipPath id="4871020d4b"><path d="M 0.0390625 0.441406 L 277.480469 0.441406 L 277.480469 277.640625 L 0.0390625 277.640625 Z M 0.0390625 0.441406 " clip-rule="nonzero"/></clipPath><clipPath id="b87133a87d"><path d="M 92.617188 0.460938 L 277.253906 92.816406 L 184.902344 277.453125 L 0.265625 185.097656 Z M 92.617188 0.460938 " clip-rule="nonzero"/></clipPath><clipPath id="4e6d146020"><rect x="0" width="278" y="0" height="278"/></clipPath><clipPath id="c0a49ffe28"><path d="M 648 386 L 807 386 L 807 545 L 648 545 Z M 648 386 " clip-rule="nonzero"/></clipPath><clipPath id="5cebb15583"><path d="M 731.773438 386.910156 L 806.1875 470.425781 L 722.667969 544.839844 L 648.257812 461.320312 Z M 731.773438 386.910156 " clip-rule="nonzero"/></clipPath><clipPath id="22651d2724"><path d="M 0.238281 0.878906 L 158.398438 0.878906 L 158.398438 159 L 0.238281 159 Z M 0.238281 0.878906 " clip-rule="nonzero"/></clipPath><clipPath id="4468134752"><path d="M 83.773438 0.910156 L 158.1875 84.425781 L 74.667969 158.839844 L 0.257812 75.320312 Z M 83.773438 0.910156 " clip-rule="nonzero"/></clipPath><clipPath id="377e861d10"><rect x="0" width="159" y="0" height="159"/></clipPath><clipPath id="2834de71bf"><path d="M 863 321 L 1048 321 L 1048 506 L 863 506 Z M 863 321 " clip-rule="nonzero"/></clipPath><clipPath id="037a633cc6"><path d="M 987.5 321.339844 L 1047.632812 444.890625 L 924.085938 505.027344 L 863.949219 381.476562 Z M 987.5 321.339844 " clip-rule="nonzero"/></clipPath><clipPath id="bd14c32ddf"><path d="M 0.761719 0.121094 L 184.839844 0.121094 L 184.839844 184.199219 L 0.761719 184.199219 Z M 0.761719 0.121094 " clip-rule="nonzero"/></clipPath><clipPath id="b5cf2b6ff2"><path d="M 124.5 0.339844 L 184.632812 123.890625 L 61.085938 184.027344 L 0.949219 60.476562 Z M 124.5 0.339844 " clip-rule="nonzero"/></clipPath><clipPath id="ae9ef81ace"><rect x="0" width="185" y="0" height="185"/></clipPath><clipPath id="f1a83be79a"><path d="M 820 413 L 906 413 L 906 499 L 820 499 Z M 820 413 " clip-rule="nonzero"/></clipPath><clipPath id="4f0006d5fe"><path d="M 865.929688 413.183594 L 905.734375 458.59375 L 860.324219 498.398438 L 820.519531 452.988281 Z M 865.929688 413.183594 " clip-rule="nonzero"/></clipPath><clipPath id="6e9d5e32eb"><path d="M 0.320312 0.0390625 L 85.761719 0.0390625 L 85.761719 85.480469 L 0.320312 85.480469 Z M 0.320312 0.0390625 " clip-rule="nonzero"/></clipPath><clipPath id="7856935c77"><path d="M 45.929688 0.183594 L 85.734375 45.59375 L 40.324219 85.398438 L 0.519531 39.988281 Z M 45.929688 0.183594 " clip-rule="nonzero"/></clipPath><clipPath id="488d7fc23f"><rect x="0" width="86" y="0" height="86"/></clipPath><clipPath id="2e1a1288bc"><path d="M 199.183594 170 L 1300 170 L 1300 1270.476562 L 199.183594 1270.476562 Z M 199.183594 170 " clip-rule="nonzero"/></clipPath></defs><rect x="-150" width="1800" fill="#ffffff" y="-149.999993" height="1799.99992" fill-opacity="1"/><rect x="-150" width="1800" fill="#000000" y="-149.999993" height="1799.99992" fill-opacity="1"/><g clip-path="url(#2509c6b05e)"><path fill="#ffffff" d="M 942.074219 396.257812 L 954.0625 399.617188 L 868.054688 519.527344 C 866.828125 521.242188 864.855469 522.265625 862.746094 522.289062 C 860.632812 522.3125 858.640625 521.328125 857.375 519.640625 L 832.773438 486.828125 C 830.578125 483.902344 831.171875 479.75 834.101562 477.554688 C 837.027344 475.359375 841.179688 475.953125 843.375 478.882812 L 867.972656 511.691406 L 857.292969 511.804688 L 943.296875 391.894531 C 944.921875 389.632812 947.785156 388.625 950.46875 389.378906 C 953.148438 390.128906 955.074219 392.476562 955.285156 395.253906 C 955.5625 398.902344 952.828125 402.082031 949.183594 402.359375 C 945.535156 402.636719 942.351562 399.90625 942.074219 396.257812 Z M 942.074219 396.257812 " fill-opacity="0.996" fill-rule="nonzero"/></g><g clip-path="url(#f0dfb23e28)"><path fill="#ffffff" d="M 856.171875 447.917969 L 868.085938 451.90625 L 758.449219 597.140625 C 757.226562 598.757812 755.332031 599.726562 753.304688 599.773438 C 751.277344 599.816406 749.34375 598.929688 748.054688 597.367188 L 675.355469 509.265625 C 673.027344 506.441406 673.429688 502.269531 676.25 499.941406 C 679.070312 497.609375 683.246094 498.011719 685.574219 500.832031 L 758.273438 588.933594 L 747.875 589.160156 L 857.511719 443.925781 C 859.226562 441.652344 862.203125 440.730469 864.902344 441.636719 C 867.601562 442.539062 869.421875 445.070312 869.421875 447.917969 C 869.421875 451.574219 866.457031 454.542969 862.796875 454.542969 C 859.140625 454.542969 856.171875 451.574219 856.171875 447.917969 Z M 856.171875 447.917969 " fill-opacity="0.996" fill-rule="nonzero"/></g><path fill="#ffffff" d="M 713.382812 447.050781 L 725.339844 451.226562 L 656.414062 545.121094 C 655.167969 546.820312 653.1875 547.824219 651.078125 547.828125 C 648.972656 547.828125 646.988281 546.828125 645.738281 545.128906 L 537.617188 398.273438 C 535.449219 395.328125 536.078125 391.179688 539.023438 389.011719 C 541.96875 386.84375 546.117188 387.472656 548.285156 390.417969 L 656.40625 537.277344 L 645.734375 537.28125 L 714.660156 443.386719 C 716.382812 441.039062 719.4375 440.09375 722.183594 441.050781 C 724.933594 442.011719 726.730469 444.652344 726.621094 447.558594 C 726.480469 451.214844 723.402344 454.066406 719.746094 453.925781 C 716.09375 453.785156 713.242188 450.707031 713.382812 447.050781 Z M 713.382812 447.050781 " fill-opacity="0.996" fill-rule="nonzero"/><g clip-path="url(#05052fa10d)"><g clip-path="url(#fc27e723c5)"><g transform="matrix(1, 0, 0, 1, 371, 271)"><g clip-path="url(#4e6d146020)"><g clip-path="url(#4871020d4b)"><g clip-path="url(#b87133a87d)"><path fill="#000000" d="M 92.617188 0.460938 L 277.253906 92.816406 L 184.902344 277.453125 L 0.265625 185.097656 Z M 92.617188 0.460938 " fill-opacity="1" fill-rule="nonzero"/></g></g></g></g></g></g><g clip-path="url(#c0a49ffe28)"><g clip-path="url(#5cebb15583)"><g transform="matrix(1, 0, 0, 1, 648, 386)"><g clip-path="url(#377e861d10)"><g clip-path="url(#22651d2724)"><g clip-path="url(#4468134752)"><path fill="#000000" d="M 83.773438 0.910156 L 158.1875 84.425781 L 74.667969 158.839844 L 0.257812 75.320312 Z M 83.773438 0.910156 " fill-opacity="1" fill-rule="nonzero"/></g></g></g></g></g></g><g clip-path="url(#2834de71bf)"><g clip-path="url(#037a633cc6)"><g transform="matrix(1, 0, 0, 1, 863, 321)"><g clip-path="url(#ae9ef81ace)"><g clip-path="url(#bd14c32ddf)"><g clip-path="url(#b5cf2b6ff2)"><path fill="#000000" d="M 124.5 0.339844 L 184.632812 123.890625 L 61.085938 184.027344 L 0.949219 60.476562 Z M 124.5 0.339844 " fill-opacity="1" fill-rule="nonzero"/></g></g></g></g></g></g><g clip-path="url(#f1a83be79a)"><g clip-path="url(#4f0006d5fe)"><g transform="matrix(1, 0, 0, 1, 820, 413)"><g clip-path="url(#488d7fc23f)"><g clip-path="url(#6e9d5e32eb)"><g clip-path="url(#7856935c77)"><path fill="#000000" d="M 45.929688 0.183594 L 85.734375 45.59375 L 40.324219 85.398438 L 0.519531 39.988281 Z M 45.929688 0.183594 " fill-opacity="1" fill-rule="nonzero"/></g></g></g></g></g></g><g clip-path="url(#2e1a1288bc)"><path fill="#ffffff" d="M 201.238281 1263.820312 C 203.746094 1267.875 208.167969 1270.347656 212.9375 1270.347656 L 1285.675781 1270.347656 C 1290.445312 1270.347656 1294.871094 1267.875 1297.375 1263.820312 C 1299.878906 1259.765625 1300.109375 1254.699219 1297.980469 1250.441406 L 761.609375 177.703125 C 756.949219 168.382812 741.664062 168.382812 737.003906 177.703125 L 200.636719 1250.441406 C 198.507812 1254.699219 198.734375 1259.765625 201.238281 1263.820312 Z M 749.308594 214.609375 L 1263.421875 1242.839844 L 235.191406 1242.839844 Z M 749.308594 214.609375 " fill-opacity="1" fill-rule="nonzero"/></g><path stroke-linecap="butt" transform="matrix(0.75, 0, 0, 0.75, 863.134351, 1193.867805)" fill="none" stroke-linejoin="miter" d="M -0.00205134 34.999179 L 360.508396 34.999179 " stroke="#c80814" stroke-width="70" stroke-opacity="1" stroke-miterlimit="4"/><path stroke-linecap="butt" transform="matrix(0.75, 0, 0, 0.75, 863.134351, 1270.357023)" fill="none" stroke-linejoin="miter" d="M -0.00205134 34.997931 L 360.508396 34.997931 " stroke="#c80814" stroke-width="70" stroke-opacity="1" stroke-miterlimit="4"/><path stroke-linecap="butt" transform="matrix(0.75, 0, 0, 0.75, 863.134351, 1231.984434)" fill="none" stroke-linejoin="miter" d="M -0.00205134 34.999925 L 360.508396 34.999925 " stroke="#fffcfc" stroke-width="70" stroke-opacity="1" stroke-miterlimit="4"/></svg>